# xmcd
# 
# Track frame offsets:
#     197
#     28897
#     50337
#     88487
#     101700
#     130840
#     160677
#     182920
#     207865
#     247665
#     272812
# 
# Disc length: 3892
# 
# Revision: 1
# Processed by: cddbd v1.5.2PL0 Copyright (c) Steve Scherf et al.
# Submitted via: BonkEnc v1.0.8
# 
DISCID=970f320b
DTITLE=吉澤はじめ, Marc Johnson, Peter Erskine, John Abercrombie, Bob Mintzer - Hajime
DYEAR=1991
DGENRE=Contemporary Jazz
TTITLE0=Bless Me With Your Breath
TTITLE1=Beyond Twilight
TTITLE2=Yesterdays
TTITLE3=Snake Dance
TTITLE4=Stardust
TTITLE5=Love Letters
TTITLE6=September Air
TTITLE7=Tropic Of Cancer
TTITLE8=Voyage
TTITLE9=Peatan's Blues
TTITLE10=Autumn In New York and Spring Cadenza
EXTD=YEAR: 1991
EXTT0=
EXTT1=
EXTT2=
EXTT3=
EXTT4=
EXTT5=
EXTT6=
EXTT7=
EXTT8=
EXTT9=
EXTT10=
PLAYORDER=
